<svg width="428" height="926" viewBox="0 0 428 926" fill="none" xmlns="http://www.w3.org/2000/svg" xmlns:xlink="http://www.w3.org/1999/xlink">
<g clip-path="url(#clip0_158_8436)">
<rect width="428" height="926" fill="url(#paint0_linear_158_8436)"/>
<g filter="url(#filter0_dd_158_8436)">
</g>
<g opacity="0.7">

</g>
<path fill-rule="evenodd" clip-rule="evenodd" d="M285.436 27.8817C285.1 25.8548 282.345 26.2503 281.799 27.8817C279.695 34.1839 278.903 40.7925 276.346 46.9958C273.865 53.0152 270.417 58.6846 266.187 63.5768C258.147 72.8748 247.466 79.0286 236.254 83.4384C213.99 92.1945 188.851 95.2299 169 109.626C147.605 125.143 137.425 151.267 118.997 169.76C101.872 186.946 80.0094 198.299 57.0311 204.781C45.3189 208.085 33.2863 210.189 21.192 211.295C8.99141 212.412 -3.20141 212.202 -15.4309 211.955C-18.4096 211.894 -21.3941 212.007 -24.3767 211.989C-26.0832 211.979 -26.5234 214.714 -24.7879 215.099C-12.4657 217.836 -0.0972233 218.319 12.4778 217.834C24.9467 217.354 37.3789 215.823 49.5679 213.061C73.4632 207.646 96.4821 197.429 115.457 181.421C125.422 173.017 133.599 163.021 141.066 152.286C148.887 141.044 156.226 129.234 166.301 119.909C185.071 102.535 211.057 98.7992 234.09 90.4109C245.616 86.2127 256.823 80.7016 265.902 72.1471C275.527 63.0765 282.347 50.7747 285.131 37.6919C285.477 36.0704 285.899 34.3381 285.988 32.679C286.073 31.1129 285.691 29.4301 285.436 27.8817Z" fill="#9EBF98" fill-opacity="0.24"/>
<path fill-rule="evenodd" clip-rule="evenodd" d="M7.44484 193.353C18.5412 192.501 29.5776 190.65 40.3728 187.888C61.3415 182.521 81.5323 173.059 97.9316 158.455C106.572 150.759 113.58 141.629 119.786 131.813C126.514 121.172 132.767 110.057 142.286 101.712C160.305 85.914 184.602 81.2769 205.661 71.354C216.642 66.181 227.205 59.1986 235.379 49.9876C242.919 41.4905 250.058 29.4062 247.365 17.5098C247.023 16.003 244.838 16.0742 244.456 17.5098C243.12 22.5464 241.996 27.7689 239.917 32.5603C237.898 37.2132 235.06 41.4825 231.757 45.2714C224.597 53.4857 215.507 59.7365 205.922 64.603C185.685 74.8739 162.753 79.1432 144.027 92.6077C134.112 99.7365 126.755 109.151 120.115 119.416C113.694 129.341 107.59 139.327 99.3215 147.789C84.5901 162.867 65.8704 172.673 46.1603 179.04C34.6644 182.754 22.877 185.062 10.9679 186.855C-1.15152 188.68 -13.4525 189.821 -25.6897 190.29C-27.4503 190.357 -27.4232 192.94 -25.6897 193.07C-14.6474 193.905 -3.60322 194.202 7.44484 193.353Z" fill="#9EBF98" fill-opacity="0.24"/>
<path fill-rule="evenodd" clip-rule="evenodd" d="M89.2927 115.08C85.2928 122.746 80.9473 130.363 75.0497 136.681C68.4109 143.796 60.0423 148.36 50.9131 151.22C39.9191 154.662 28.3807 156.134 17.0469 157.9C4.55683 159.843 -7.68619 160.203 -20.1165 157.722C-21.213 157.502 -22.0778 159.132 -20.9292 159.699C-10.9487 164.631 0.767319 164.809 11.5953 163.899C22.3885 162.992 33.2937 161.281 43.8804 158.934C53.859 156.719 63.8723 153.308 72.1463 147.004C79.206 141.625 84.702 134.577 89.312 126.958C98.6748 111.483 104.638 93.3119 117.711 80.4782C132.388 66.0684 152.846 60.7352 170.606 51.635C179.978 46.8337 188.99 40.581 195.966 32.5011C202.516 24.9136 208.215 14.8345 206.762 4.37967C206.491 2.43583 203.547 2.64742 203.125 4.37967C202.072 8.69449 201.111 13.124 199.31 17.1956C197.536 21.2059 195.111 24.9057 192.281 28.212C186.254 35.2517 178.691 40.7352 170.67 45.145C153.753 54.4489 134.639 59.355 119.227 71.4867C104.955 82.7186 97.5667 99.2304 89.2927 115.08Z" fill="#9EBF98" fill-opacity="0.24"/>
<path fill-rule="evenodd" clip-rule="evenodd" d="M-21.5352 128.39C-4.56641 130.237 12.5279 131.595 29.3731 127.968C42.8285 125.073 55.9769 118.983 65.9477 109.127C70.9862 104.148 75.0171 98.267 77.9301 91.7493C81.127 84.5969 83.5343 76.9995 88.6712 70.9761C97.8641 60.1931 111.321 54.9429 123.281 48.2037C129.823 44.5178 136.199 40.2148 141.475 34.757C146.643 29.408 151.068 22.8053 151.363 15.0991C151.448 12.8943 148.581 12.8508 147.882 14.6166C145.464 20.7329 142.458 26.3647 137.85 31.0434C133.172 35.7952 127.611 39.5266 121.866 42.7776C110.348 49.2992 97.7888 54.1757 87.9396 63.4005C82.6366 68.3659 78.9957 74.3952 76.1251 81.0928C73.241 87.8142 70.5596 94.5454 65.9072 100.233C57.5618 110.43 45.7164 117.257 33.3499 120.941C15.6822 126.203 -3.31547 125.94 -21.5352 125.378C-23.4637 125.319 -23.3769 128.19 -21.5352 128.39Z" fill="#9EBF98" fill-opacity="0.24"/>
<path fill-rule="evenodd" clip-rule="evenodd" d="M-14.6355 99.9841C-6.28048 104.546 3.76953 106.059 12.9836 103.597C21.6534 101.279 28.8347 95.8215 34.6493 88.9776C40.4986 82.0881 45.1027 74.2317 50.3478 66.8755C55.9462 59.0231 62.5175 52.2641 71.0578 47.8227C76.0848 45.2085 81.3395 43.8105 86.8085 42.5548C91.7563 41.4197 97.289 40.0632 99.9917 35.2362C100.538 34.2633 99.6249 32.8593 98.5014 33.2509C94.2814 34.726 90.1424 36.2507 85.7699 37.2137C81.1349 38.236 76.5983 39.2603 72.2007 41.1271C63.6603 44.7537 56.3342 50.5773 50.4289 57.8326C39.9503 70.7059 32.9833 88.1273 17.8832 96.2744C8.41809 101.38 -3.46586 101.918 -13.3035 97.6487C-14.8189 96.9922 -16.176 99.1417 -14.6355 99.9841Z" fill="#9EBF98" fill-opacity="0.24"/>
</g>
<defs>





<linearGradient id="paint0_linear_158_8436" x1="214" y1="0" x2="214" y2="926" gradientUnits="userSpaceOnUse">
<stop stop-color="#EFE7DB"/>
<stop offset="1" stop-color="#D6E0CF"/>
</linearGradient>








</defs>
</svg>
