<svg width="24" height="24" viewBox="0 0 24 24" fill="none" xmlns="http://www.w3.org/2000/svg">
<path d="M13.9909 9.52973V6.99541C13.9909 5.93524 14.412 4.9185 15.1617 4.16885C15.9113 3.4192 16.9281 2.99805 17.9882 2.99805H19.4872C19.6198 2.99805 19.7469 3.05069 19.8406 3.1444C19.9343 3.2381 19.9869 3.3652 19.9869 3.49772V4.99673C19.9869 6.05689 19.5658 7.07364 18.8161 7.82329C18.0665 8.57294 17.0497 8.99409 15.9895 8.99409C14.9294 8.99409 13.9126 9.41523 13.163 10.1649C12.4133 10.9145 11.9922 11.9313 11.9922 12.9914C11.9922 14.9901 12.9915 15.9895 12.9915 17.9881C12.9915 19.0693 12.6409 20.1213 11.9922 20.9862" stroke="#2196F3" stroke-width="1.99868" stroke-linecap="round" stroke-linejoin="round"/>
<path d="M3.99756 8.99446C4.73992 8.43769 5.62265 8.09864 6.54685 8.01531C7.47104 7.93197 8.40019 8.10764 9.23017 8.52264C10.0602 8.93763 10.7582 9.57554 11.246 10.3649C11.7339 11.1543 11.9923 12.0639 11.9923 12.9918C11.2499 13.5486 10.3672 13.8876 9.44299 13.971C8.51879 14.0543 7.58965 13.8786 6.75967 13.4636C5.92969 13.0487 5.23166 12.4107 4.74381 11.6214C4.25596 10.832 3.99756 9.92241 3.99756 8.99446Z" stroke="#2196F3" stroke-width="1.99868" stroke-linecap="round" stroke-linejoin="round"/>
<path d="M4.99658 20.9863H18.9873" stroke="#2196F3" stroke-width="1.99868" stroke-linecap="round" stroke-linejoin="round"/>
</svg>
